<svg xmlns="http://www.w3.org/2000/svg" viewBox="0 0 320 240" width="320" height="240" role="img" aria-label="drone mount">
<rect width="320" height="240" fill="#f6f8fa"/>
<g fill="none" stroke="#d0d7de" stroke-width="1">
<path d="M0 20 H320"/><path d="M0 40 H320"/><path d="M0 60 H320"/><path d="M0 80 H320"/><path d="M0 100 H320"/><path d="M0 120 H320"/><path d="M0 140 H320"/><path d="M0 160 H320"/><path d="M0 180 H320"/><path d="M0 200 H320"/><path d="M0 220 H320"/>
<path d="M20 0 V240"/><path d="M40 0 V240"/><path d="M60 0 V240"/><path d="M80 0 V240"/><path d="M100 0 V240"/><path d="M120 0 V240"/><path d="M140 0 V240"/><path d="M160 0 V240"/><path d="M180 0 V240"/><path d="M200 0 V240"/><path d="M220 0 V240"/><path d="M240 0 V240"/><path d="M260 0 V240"/><path d="M280 0 V240"/><path d="M300 0 V240"/>
</g>
<g fill="none" stroke="#57606a" stroke-width="3" stroke-linecap="round" stroke-linejoin="round">
<path d="M80 130 h160"/><path d="M100 130 v-25 h120 v25"/><circle cx="100" cy="95" r="10"/><circle cx="220" cy="95" r="10"/><rect x="135" y="60" width="50" height="34" rx="6"/>
</g>
<text x="160" y="222" text-anchor="middle" font-family="SF Mono,Monaco,monospace" font-size="11" fill="#57606a">drone mount</text>
</svg>